<?xml version="1.0" standalone="no"?>
<!DOCTYPE svg PUBLIC "-//W3C//DTD SVG 1.1//EN" "http://www.w3.org/Graphics/SVG/1.1/DTD/svg11.dtd" >
<svg xmlns="http://www.w3.org/2000/svg">
<metadata>Generated by IcoMoon</metadata>
<defs>
<font id="Thzadmin" horiz-adv-x="1024">
<font-face units-per-em="1024" ascent="960" descent="-64" />
<missing-glyph horiz-adv-x="1024" />
<glyph unicode="&#x20;" horiz-adv-x="0" d="" />
<glyph unicode="&#x27;" glyph-name="shortcode_button" d="M786 318l-178 60v240c0 48-38 86-86 86-46 0-84-38-84-86v-400c-64 84-104 102-150 102-22 0-38-10-48-28-14-26-6-66 8-90l172-256c4-6 10-10 18-10h340c10 0 20 8 22 18l42 234c12 50 0 114-56 130zM800 960h-554c-94 0-172-76-172-170v-236c0-94 78-170 172-170h20c24 0 44 20 44 42 0 24-20 44-44 44h-20c-48 0-86 38-86 84v236c0 46 38 84 86 84h554c48 0 86-38 86-84v-236c0-46-38-84-86-84h-22c-22 0-42-20-42-44 0-22 20-42 42-42h22c94 0 170 76 170 170v236c0 94-76 170-170 170z" />
<glyph unicode="&#x29;" glyph-name="shortcode_call_to_action" d="M376-54c4-6 12-10 18-10h342c10 0 20 8 20 18l44 234c12 52-6 114-60 130l-174 60v240c0 48-38 86-86 86s-86-38-86-86v-400c-62 84-104 102-148 102-22 0-40-10-48-28-16-26-8-66 8-90zM842 662c0 22-18 42-42 42h-128c-24 0-42-20-42-42 0-24 18-44 42-44h128c24 0 42 20 42 44zM660 738l84 86c18 16 18 42 0 60-16 16-42 16-60 0l-84-86c-18-16-18-44 0-60 8-8 18-12 30-12 10 0 22 4 30 12zM522 790v128c0 22-18 42-42 42s-42-20-42-42v-128c0-24 18-44 42-44s42 20 42 44zM330 726c12 0 22 4 30 12 18 16 18 44 0 60l-84 86c-18 16-44 16-60 0-18-18-18-44 0-60l84-86c8-8 20-12 30-12zM118 662c0-24 18-44 42-44h128c24 0 42 20 42 44 0 22-18 42-42 42h-128c-24 0-42-20-42-42z" />
<glyph unicode="&#x30;" glyph-name="shortcode_typist" d="M60.676 592.472v-288.943c0-13.177 10.781-23.959 23.959-23.959h73.434v336.861h-73.434c-13.177 0-23.959-10.662-23.959-23.959zM387.474 279.57h551.891c13.177 0 23.959 10.781 23.959 23.959v288.943c0 13.177-10.781 23.959-23.959 23.959h-551.891v-336.861zM405.324 960c-46.121 0-90.565-17.011-124.945-47.918l-7.547-6.828-7.547 6.828c-34.381 30.907-78.824 47.918-124.945 47.918-30.068 0-54.506-24.797-54.027-54.985 0.479-29.589 25.396-52.709 54.985-53.069 38.574-0.479 70.918-28.271 77.028-66.486v-674.919c-6.109-38.214-38.454-66.006-77.028-66.486-29.589-0.361-54.506-23.48-54.985-53.070-0.479-30.187 23.959-54.985 54.027-54.985 46.121 0 90.564 17.012 124.945 47.918l7.547 6.829 7.547-6.829c34.381-30.906 78.824-47.918 124.945-47.918 30.068 0 54.506 24.799 54.027 54.985-0.479 29.59-25.396 52.709-54.985 53.070-38.572 0.479-70.917 28.271-77.028 66.486v674.919c6.111 38.214 38.455 66.006 77.028 66.486 29.589 0.359 54.506 23.48 54.985 53.069 0.479 30.308-23.96 54.985-54.027 54.985z" />
<glyph unicode="&#x76;" glyph-name="shortcode_link" d="M953.6 889.6c-89.6 89.6-236.8 89.6-326.4 0l-281.6-275.2c-89.6-96-89.6-236.8 0-332.8 6.4-6.4 19.2-12.8 25.6-19.2l96 96c-6.4 6.4-19.2 12.8-25.6 19.2-38.4 38.4-38.4 102.4 0 140.8l281.6 281.6c38.4 38.4 102.4 38.4 140.8 0s38.4-102.4 0-140.8l-83.2-83.2c25.6-51.2 32-108.8 25.6-160l147.2 147.2c96 89.6 96 236.8 0 326.4zM652.8 633.6l-96-96c0 0 19.2-12.8 25.6-19.2 38.4-38.4 38.4-102.4 0-140.8l-281.6-281.6c-38.4-38.4-102.4-38.4-140.8 0s-38.4 102.4 0 140.8l83.2 83.2c-25.6 51.2-6.4 83.2-25.6 160l-147.2-147.2c-89.6-89.6-89.6-236.8 0-326.4s236.8-89.6 326.4 0l281.6 281.6c89.6 89.6 89.6 236.8 0 326.4-12.8 6.4-25.6 19.2-25.6 19.2z" />
<glyph unicode="&#xe036;" glyph-name="shortcode_icon" d="M1024 562.952l-353.783 51.405-158.217 320.585-158.217-320.585-353.783-51.405 256.002-249.539-60.432-352.355 316.43 166.36 316.43-166.36-60.432 352.355z" />
<glyph unicode="&#xe047;" glyph-name="shortcode_notification" d="M273.067 857.6l-68.267 68.267c-117.029-87.771-195.048-224.305-204.8-380.343h97.524c9.752 131.657 73.143 243.81 175.543 312.076zM926.476 545.524h97.524c-9.752 156.038-82.895 292.571-199.924 380.343l-68.267-68.267c97.524-68.267 160.914-180.419 170.667-312.076zM828.952 521.143c0 151.162-102.4 273.067-243.81 307.2v34.133c0 39.010-34.133 73.143-73.143 73.143s-73.143-34.133-73.143-73.143v-34.133c-141.41-34.133-243.81-156.038-243.81-307.2v-268.19l-97.524-97.524v-48.762h828.952v48.762l-97.524 97.524v268.19zM512-39.619c4.876 0 14.629 0 19.505 0 34.133 4.876 58.514 29.257 68.267 58.514 4.876 9.754 9.752 24.381 9.752 39.010h-195.048c0-53.638 43.886-97.524 97.524-97.524z" />
<glyph unicode="&#xe058;" glyph-name="shortcode_testimonials" d="M1024 249.6c0 96-96 179.2-204.8 211.2-83.2-96-249.6-153.6-409.6-153.6-6.4 0-19.2 0-25.6 0 0 0 0 0-6.4 0-6.4-19.2-6.4-32-6.4-51.2 0-128 140.8-230.4 320-230.4 12.8 0 25.6 0 38.4 0 25.6-32 108.8-89.6 217.6-89.6 0 0-51.2 25.6-51.2 115.2 0 0 0 0 0 0 0 38.4 128 115.2 128 198.4zM832 665.6c0 160-179.2 294.4-409.6 294.4s-422.4-134.4-422.4-294.4c0-108.8 128-204.8 192-256 0 0 0 0 0 0 0-115.2-89.6-153.6-89.6-153.6 147.2 0 230.4 70.4 268.8 115.2 12.8 0 32 0 51.2 0 224-6.4 409.6 128 409.6 294.4z" />
<glyph unicode="&#xe0a4;" glyph-name="shortcode_social_links" d="M383.889 511.597c0 70.754 57.359 128.117 128.113 128.117 70.751 0 128.117-57.366 128.117-128.117 0-70.754-57.366-128.107-128.117-128.107s-128.113 57.353-128.113 128.107zM632.175 314.175c-9.761 3.559-19.904 5.127-30.166 5.059v0.068l-180.525 0.068c-10.071 0-20.086-1.696-29.718-5.205-67.558-24.577-91.834-128.168-54.299-231.394 34.72-95.33 109.973-156.067 174.535-145.567 64.493-10.635 139.75 50.11 174.402 145.51 37.669 103.224 13.398 206.815-54.229 231.461zM512.004 799.854c-158.955 0-288.257-129.3-288.257-288.255 0-73.996 28.831-140.873 74.813-191.991 13.259 17.705 29.467 31.528 47.729 42.164-35.968 39.798-58.485 92.027-58.485 149.827 0 123.865 100.461 224.201 224.197 224.201 123.798 0 224.208-100.336 224.208-224.201 0-57.799-22.528-110.030-58.5-149.827 18.278-10.635 34.464-24.509 47.736-42.164 45.978 51.116 74.813 117.993 74.813 191.991-0.002 158.953-129.311 288.255-288.255 288.255zM512.004 960c-247.221 0-448.401-201.188-448.401-448.403 0-153.197 77.314-288.631 194.982-369.519-3.19 27.523-2.687 54.299 1.253 79.953-80.886 70.428-132.179 173.899-132.179 289.567 0 212.318 172.154 384.343 384.345 384.343 212.189 0 384.343-172.026 384.343-384.343 0-115.667-51.352-219.138-132.19-289.567 3.885-25.654 4.446-52.427 1.263-80.010 117.6 80.945 194.978 216.38 194.978 369.576-0.002 247.215-201.18 448.403-448.394 448.403z" />
<glyph unicode="&#xe0a5;" glyph-name="shortcode_sharing_links" d="M832 320c-68 0-126-34-162-88l-298 150c8 22 12 44 12 66s-4 44-12 66l298 150c36-54 94-88 162-88 106 0 192 86 192 192s-86 192-192 192c-106 0-192-86-192-192 0-24 4-46 12-66l-300-150c-34 54-94 88-160 88-106 0-192-86-192-192s86-192 192-192c66 0 126 34 160 88l300-150c-8-20-12-42-12-66 0-106 86-192 192-192s192 86 192 192c0 106-86 192-192 192z" />
<glyph unicode="&#xe0dd;" glyph-name="shortcode_team_members" d="M894 226c-20 8-42 16-62 24v36c16 10 38 34 42 84 14 12 22 38 22 62 0 10-2 24-8 36-2 4-4 6-6 10 10 18 24 50 12 84-14 46-78 62-126 62-42 0-96-12-118-46-24 0-36-10-40-18-16-22-6-56 4-80-4-4-8-8-10-12-6-12-8-26-8-36 0-24 8-50 24-62 2-50 26-74 42-84v-36c-6-2-10-4-16-6 70-44 80-72 80-94v-214h276c12 0 22 10 22 22v192c0 28-38 44-130 76zM594 224c0 0 0 0 0 0-48 26-106 52-146 68v58c8 6 18 16 26 34 0 0 0 0 0 0 6 12 10 28 14 46 0 2 0 4 0 6 2 6 2 12 2 18 2 2 4 4 6 4 0 2 0 2 0 2 6 6 12 14 16 24 0 0 0 0 0 2 2 4 4 10 4 14 0 2 0 2 0 2 2 6 2 10 2 16 0 4 0 8 0 10-2 10-4 20-10 28-2 4-6 8-10 10 2 4 4 10 6 14 2 8 4 14 6 20 0 2 0 4 2 6 0 6 2 12 2 18 0 2 0 2 0 4 0 6 0 10 0 14 0 2 0 4 0 6 0 6-2 12-2 18-2 6-4 12-8 18 0 0 0 0 0 0-8 16-22 30-42 40 0 0-2 2-2 2-6 2-10 4-16 8-4 0-6 0-8 2-4 2-8 2-14 4-4 0-6 2-10 2-6 0-12 2-18 2-2 0-4 2-6 2-8 0-16 0-26 0-6 0-14 0-20 0-20-2-42-6-60-14 0 0 0 0-2 0s-6-2-10-4c-6-4-14-8-20-12 0 0 0 0 0 0-4-4-8-6-10-8s-4-2-4-4-6-6-8-8c-2-4-4-8-8-12-2 0-6 0-10 0s-8 0-12-2c0 0 0 0 0 0-4-2-8-4-10-4 0 0 0-2-2-2-2-2-4-2-6-4 0-2 0-2 0-2-2-2-4-4-6-6s-2-6-4-10c0 0 0-2 0-2-2-4-2-6-2-8s0-2 0-4 0-6 0-8c0-2 0-2 0-4 0-4 0-6 0-10 2 0 2-2 2-2 0-4 0-8 2-12 0 0 0 0 0 0 4-14 10-26 14-36-4-4-8-8-12-14 0 0 0 0 0 0 0-2-2-4-4-6 0 0 0 0 0-2 0 0-2-2-2-4s0-2 0-4c-2-2-2-4-2-6 0-4-2-10-2-14 0-6 2-12 2-16 0-2 0-2 0-2 2-6 2-10 4-16 0 0 0 0 0 0 4-10 10-18 16-24 0 0 0 0 0-2 2 0 4-2 6-4 0-6 2-12 2-18 0-2 0-4 0-6 4-18 8-34 14-46 0 0 0 0 0 0 10-18 18-28 26-34v-58c-74-30-214-92-232-134 0 0 0 0 0 0-2-4-2-6-2-8v-192c0-12 10-22 22-22h660v214c0 20-38 48-88 74z" />
<glyph unicode="&#xe125;" glyph-name="shortcode_parse_shortcode" d="M117.527 866.956v-856.178h278.258v133.778h-133.778v588.622h133.778v133.778h-278.258zM663.34 866.956v-133.778h133.778v-588.622h-133.778v-133.778h278.258v856.178h-278.258z" />
<glyph unicode="&#xe14a;" glyph-name="shortcode_image_hotspots" d="M960 768v-640h-896v640h896zM1024 832h-1024v-768h1024v768zM192 256h640l-128 384-192-256-128 128-192-256zM256 640c-35.376 0-64-28.656-64-64s28.626-64 64-64 64 28.656 64 64-28.624 64-64 64z" />
<glyph unicode="&#xe157;" glyph-name="shortcode_image" d="M1024 64h-1024v768h1024v-768zM64 128h896v640h-896v-640zM128 320v-128h768v64c0 0 12.8 108.8-128 128-121.6 19.2-140.8-38.4-243.2-38.4-70.4 0-57.6 102.4-204.8 102.4-108.8 0-192-128-192-128zM832 576c0-70.72-57.28-128-128-128s-128 57.28-128 128c0 70.72 57.28 128 128 128s128-57.28 128-128z" />
<glyph unicode="&#xe15a;" glyph-name="shortcode_media_gallery" d="M64 704v-640h768v640h-768zM0 768h896v-768h-896v768zM768 192h-640l128 384 192-256 128 128 192-256zM704 576c35.376 0 64-28.626 64-64s-28.626-64-64-64-64 28.626-64 64 28.624 64 64 64zM1024 896v-768h-64v704h-832v64h896z" />
<glyph unicode="&#xe15b;" glyph-name="shortcode_before_after" d="M704 704v-704h-640v704h640zM768 768h-768v-832h768v832zM640 640h-512v-512h512v512zM832 730.5v-255.5l43.688 247.812-43.688 7.688zM267.626 960l-22.562-128h65l9.5 53.876 305.436-53.876h207v-36.5l117.812-20.75-117.812-668.438v-90.688l47.5-8.376 144.5 819.376-756.374 133.376z" />
<glyph unicode="&#xe173;" glyph-name="shortcode_media" d="M448 896c-247.438 0-448-200.562-448-448s200.562-448 448-448 448 200.562 448 448-200.562 448-448 448zM649.438 675.156c45.938 26.532 104.562 10.782 131.124-35.156 26.5-45.876 10.812-104.626-35.126-131.126-46-26.562-104.688-10.782-131.188 35.094-26.498 45.97-10.81 104.626 35.19 131.188zM246.626 220.874c-46-26.562-104.688-10.812-131.188 35.126-26.562 45.938-10.812 104.626 35.188 131.126 45.938 26.562 104.562 10.812 131.126-35.126 26.498-45.876 10.748-104.626-35.126-131.126zM281.75 544c-26.5-45.906-85.25-61.656-131.126-35.126-46 26.532-61.688 85.218-35.188 131.126 26.562 45.968 85.188 61.656 131.188 35.126 45.876-26.532 61.626-85.158 35.126-131.126zM448 64c-53 0-96 42.938-96 96s43 96 96 96c53.062 0 96-42.938 96-96s-42.938-96-96-96zM448 640c-53 0-96 42.938-96 96s43 96 96 96c53.062 0 96-42.938 96-96s-42.938-96-96-96zM780.562 256c-26.5-45.876-85.188-61.688-131.126-35.126-46 26.5-61.688 85.25-35.188 131.126 26.562 45.938 85.188 61.688 131.188 35.126 45.94-26.502 61.626-85.188 35.126-131.126zM1024 128v-128h-328.688c58.562 32.5 110.062 76.126 151.75 128h176.938z" />
<glyph unicode="&#xe222;" glyph-name="shortcode_tabs" d="M339.305 732.444l72.139-72.124c26.834-26.862 62.556-41.653 100.556-41.653h341.333v-455.111h-682.667v568.889h168.638zM374.667 846.222h-260.889c-31.417 0-56.889-25.472-56.889-56.889v-682.667c0-31.417 25.472-56.889 56.889-56.889h796.444c31.417 0 56.889 25.472 56.889 56.889v568.889c0 31.417-25.472 56.889-56.889 56.889h-398.222c-7.556 0-14.777 3.001-20.11 8.334l-97.111 97.111c-5.335 5.332-12.556 8.332-20.112 8.332v0z" />
<glyph unicode="&#xe226;" glyph-name="shortcode_magnific_popup" d="M22.043-38.951c-25.049 25.049-25.049 66.129 0 91.178l536.047 536.047-183.358 6.012 183.358 84.164-99.194 82.16 99.194 9.018 9.018 190.372 127.249-145.284 39.076 138.27 51.1-138.27 181.354 91.178-90.176-181.354 137.268-52.102-137.268-39.076 145.284-127.249-190.372-9.018-9.018-99.194-82.16 99.194-84.164-182.356-6.012 182.356-537.049-536.047c-25.049-25.049-65.127-25.049-90.176 0z" />
<glyph unicode="&#xe257;" glyph-name="shortcode_exit_popup" d="M512 960c-281.6 0-512-230.4-512-512s230.4-512 512-512 512 230.4 512 512-230.4 512-512 512zM780.8 268.8l-89.6-89.6-179.2 179.2-179.2-179.2-89.6 89.6 179.2 179.2-179.2 179.2 89.6 89.6 179.2-179.2 179.2 179.2 89.6-89.6-179.2-179.2 179.2-179.2z" />
<glyph unicode="&#xe26b;" glyph-name="shortcode_contact_form" horiz-adv-x="1088" d="M511.872 465.376l512.128 241.248v125.376h-1024v-124.992zM512.128 323.872l-512.128 241.888v-501.76h1024v500.992z" />
<glyph unicode="&#xe26c;" glyph-name="shortcode_image_layers" horiz-adv-x="1088" d="M874.512 36.384l-83.968 23.040-0.192 232.256 80.32-22.592 115.808 432.288-586.624 157.184-38.656-144.192h-66.176l59.616 222.464 710.176-190.272-190.304-710.176zM760.432-40.832h-737.248v735.264h737.248v-735.264zM696.496 630.496h-609.376v-447.52h609.376v447.52zM274.352 311.392l73.056 118.144 73.056-73.632 100.448 151.264 105.056-260.288h-465.792l59.36 118.72 54.816-54.208zM230.672 436.416c-26.496 0-47.968 21.44-47.968 47.936s21.472 47.936 47.968 47.936 47.936-21.44 47.936-47.936-21.44-47.936-47.936-47.936z" />
<glyph unicode="&#xe276;" glyph-name="shortcode_recaptcha" d="M901.551 744.637c-34.154 42.784-74.75 79.369-120.695 108.904-43.27 27.834-90.307 48.618-139.776 61.866-6.563 1.823-13.37-2.188-15.072-8.873l-26.982-112.307c-1.581-6.32 2.309-12.762 8.508-14.585 72.319-20.055 137.587-63.082 184.748-122.152 24.795-31.115 44.122-65.756 57.368-102.948 13.736-38.53 20.663-79.004 20.663-120.451 0-95.778-37.313-185.722-105.012-253.421-67.702-67.702-157.766-105.015-253.421-105.015-95.778 0-185.722 37.313-253.421 105.015-67.7 67.699-104.893 157.642-104.893 253.421 0 70.739 20.541 139.169 59.435 197.875 22.243 33.546 49.712 62.839 81.070 86.905 0 0 37.193-48.739 37.193-48.861 7.171-10.21 24.309-9.845 30.751 1.337 0 0 149.986 262.050 150.231 262.658 7.171 12.398-3.769 28.077-17.867 25.767 0 0-298.149-49.59-298.514-49.59-12.641-2.066-19.204-17.867-11.911-28.32l30.265-48.132c-45.822-34.154-85.689-76.209-117.655-124.462-54.087-81.678-82.772-176.726-82.772-275.056 0-67.215 13.127-132.484 39.137-193.985 25.038-59.315 61.015-112.673 106.716-158.374s99.059-81.677 158.373-106.715c61.502-26.011 126.771-39.139 193.985-39.139 67.213 0 132.484 13.128 193.985 39.139 59.315 25.038 112.671 61.014 158.374 106.715 45.701 45.701 81.677 99.059 106.715 158.374 26.011 61.502 39.139 126.77 39.139 193.985 0 57.369-9.724 113.766-28.807 167.367-18.477 51.778-45.337 99.91-79.857 143.058z" />
<glyph unicode="&#xe284;" glyph-name="shortcode_dot_navigation" d="M636.878 88.628c0-68.858-56.020-124.878-124.878-124.878s-124.878 56.020-124.878 124.878 56.020 124.878 124.878 124.878 124.878-56.020 124.878-124.878zM664.628 88.628c0-84.158-68.468-152.628-152.628-152.628s-152.628 68.47-152.628 152.628 68.468 152.63 152.628 152.63 152.628-68.47 152.628-152.63zM414.872 88.628c0-53.556 43.572-97.128 97.128-97.128s97.128 43.572 97.128 97.128-43.572 97.128-97.128 97.128-97.128-43.572-97.128-97.128zM636.878 448c0-68.858-56.020-124.878-124.878-124.878s-124.878 56.020-124.878 124.878 56.020 124.878 124.878 124.878 124.878-56.020 124.878-124.878zM664.628 448c0-84.16-68.47-152.628-152.628-152.628s-152.628 68.468-152.628 152.628 68.468 152.628 152.628 152.628 152.628-68.468 152.628-152.628zM414.872 448c0-53.556 43.572-97.128 97.128-97.128s97.128 43.572 97.128 97.128-43.572 97.128-97.128 97.128-97.128-43.572-97.128-97.128zM664.628 807.372c0-84.16-68.47-152.628-152.628-152.628s-152.628 68.47-152.628 152.628 68.468 152.628 152.628 152.628c15.326 0 27.75-12.426 27.75-27.75s-12.424-27.75-27.75-27.75c-53.556 0-97.128-43.572-97.128-97.128s43.572-97.128 97.128-97.128 97.128 43.572 97.128 97.128c0 17.686-4.82 35-13.936 50.078-7.934 13.118-3.73 30.174 9.382 38.104 13.114 7.932 30.176 3.732 38.108-9.386 14.356-23.736 21.946-50.988 21.946-78.796z" />
<glyph unicode="&#xe28a;" glyph-name="shortcode_sections_menu" d="M408 448c0-28 10-56 32-76 20-20 46-30 74-30 0 0 0 0 0 0 60 0 108 48 108 106s-48 106-108 106c-58 0-106-48-106-106zM280 662l470-2c0 0 0 0 0 0 8 0 16 6 20 14 2 8 2 16-4 22l-234 258c-4 4-10 6-16 6 0 0 0 0 0 0-6 0-12-2-16-6l-236-256c-6-6-6-16-4-24 4-8 12-12 20-12zM748 234l-468 2c0 0 0 0 0 0-8 0-16-6-20-14s-2-16 4-22l234-258c4-4 10-6 16-6 0 0 0 0 0 0 6 0 12 2 16 6l234 256c6 6 8 16 4 24s-10 12-20 12z" />
<glyph unicode="&#xe28e;" glyph-name="shortcode_revolution_slider" d="M991.1 926.777c-46.462-45.373-91.747-91.982-138.016-137.547-2.246-2.631-4.834 0.342-6.61 1.818-52.432 51.296-116.753 90.444-186.576 113.031-80.431 26.012-167.811 30.097-250.338 11.958-146.893-31.381-275.542-137.030-334.643-275.109 0.066-0.030 0.133-0.053 0.199-0.083-4.92-9.705-7.712-20.677-7.712-32.301 0-39.52 32.038-71.556 71.556-71.556 33.864 0 62.214 23.535 69.639 55.131 42.262 89.798 125.848 159.246 222.397 182.952 111.662 28.172 238.233-2.845 319.584-85.652-47.125-46.697-94.957-92.709-141.887-139.599 127.32 0.685 254.683 0.302 382.025 0.193 1.067 125.566 0.297 251.175 0.383 376.764zM887.648 359.227c-31.274 0-57.844-20.071-67.577-48.030-0.019 0.009-0.041 0.017-0.058 0.026-40.878-91.105-123.149-163.041-219.987-188.627-112.943-30.613-242.683-0.64-325.528 83.535 46.889 46.547 94.91 92.003 141.586 138.762-127.705-0.105-255.432-0.062-383.137-0.021-0.299-125.352-0.34-250.681 0.024-376.033 46.889 46.868 93.586 93.929 140.732 140.538 30.181-29.496 63.66-55.767 100.367-76.728 117.093-68.39 263.965-82.574 392.098-38.271 122.95 41.278 226.902 135.145 280.678 253.096 7.797 11.459 12.356 25.293 12.356 40.2 0.002 39.516-32.035 71.553-71.553 71.553z" />
<glyph unicode="&#xe2b3;" glyph-name="shortcode_calendar" d="M950.858-64h-877.714c-40.374 0-73.142 32.768-73.142 73.142v768c0 40.374 32.768 73.142 73.142 73.142h73.142v-36.572c0-60.598 49.116-109.714 109.714-109.714s109.714 49.116 109.714 109.714v36.572h292.572v-36.572c0-60.598 49.152-109.714 109.714-109.714s109.714 49.116 109.714 109.714v36.572h73.142c40.374 0 73.142-32.768 73.142-73.142v-768c0-40.374-32.768-73.142-73.142-73.142zM950.858 594.286h-877.714v-585.142h877.714v585.142zM404.81 307.968c7.204 11.484 10.826 23.626 10.826 36.316 0 28.27-15.214 42.422-45.642 42.422-26.442 0-51.712-10.496-75.85-31.488v59.574c26.698 17.298 56.868 25.93 90.442 25.93 31.414 0 55.954-7.9 73.618-23.662s26.478-37.12 26.478-63.964c0-35.84-21.504-72.924-64.512-111.214l-63.232-56.138v-1.28h124.708v-56.138h-202.276v52.7l88.064 84.224c17.7 16.97 30.172 31.196 37.376 42.716zM652.324 185.93c9.654 7.424 14.482 17.774 14.482 31.086 0 13.714-5.962 24.284-17.884 31.708s-28.306 11.154-49.188 11.154h-27.648v51.858h25.49c40.010 0 60.014 13.276 60.014 39.862 0 25.014-15.36 37.486-46.080 37.486-20.554 0-40.558-6.656-60.014-19.932v55.296c21.578 10.862 46.702 16.274 75.41 16.274 31.414 0 55.882-7.058 73.398-21.212s26.258-32.512 26.258-55.076c0-40.156-20.37-65.28-61.074-75.41v-1.060c21.724-2.706 38.838-10.606 51.42-23.662s18.87-29.11 18.87-48.092c0-28.708-10.496-51.42-31.488-68.132s-49.994-25.088-87.004-25.088c-31.708 0-57.49 5.156-77.348 15.434v58.916c20.554-14.994 44.58-22.492 72.010-22.492 17.262-0.074 30.72 3.658 40.374 11.082zM766.866 740.572c-39.79 0-72.010 32.22-72.010 72.010v75.41c0 39.79 32.22 72.010 72.010 72.010s72.010-32.22 72.010-72.010v-75.41c0-39.79-32.22-72.010-72.010-72.010zM254.866 740.572c-39.79 0-72.010 32.22-72.010 72.010v75.41c0 39.79 32.22 72.010 72.010 72.010s72.010-32.22 72.010-72.010v-75.41c0-39.79-32.256-72.010-72.010-72.010z" />
<glyph unicode="&#xe2b9;" glyph-name="shortcode_countdown" d="M488.721 471.345c0-12.876 10.436-23.246 23.268-23.246s23.268 10.436 23.268 23.246c0.022 27.233 9.695 53.704 27.255 74.533 39.064 46.319 68.345 96.537 86.886 149.261 2.505 7.124 1.416 15.011-2.941 21.177-4.379 6.166-11.438 9.826-18.998 9.826h-230.962c-7.56 0-14.641-3.66-19.020-9.826-4.357-6.166-5.447-14.052-2.941-21.177 18.584-52.724 47.822-102.942 86.886-149.261 17.582-20.828 27.277-47.321 27.299-74.533zM535.257 378.075c0 12.854-10.436 23.246-23.268 23.246s-23.268-10.436-23.268-23.246c-0.022-33.595-20.087-66.82-56.493-93.77-77.866-57.495-136.146-119.958-173.227-185.623-4.074-7.233-4.009-16.035 0.196-23.138 4.139-7.168 11.808-11.547 20.087-11.547h465.453c8.257 0 15.904 4.379 20.087 11.547 4.161 7.102 4.227 15.904 0.174 23.138-37.059 65.665-95.361 128.128-173.205 185.623-36.449 26.95-56.515 60.175-56.537 93.77zM919.227 29.073h-13.922c-15.991 181.113-122.049 320.157-204.491 418.916 82.463 98.738 188.477 237.803 204.534 418.916h13.922c25.708 0 46.537 20.85 46.537 46.558s-20.828 46.537-46.537 46.537h-814.542c-25.708 0-46.537-20.85-46.537-46.537 0-25.708 20.828-46.558 46.537-46.558h13.922c16.013-181.135 122.028-320.2 204.491-418.916-82.441-98.738-188.477-237.781-204.512-418.916h-13.9c-25.708 0-46.537-20.806-46.537-46.515 0-25.73 20.828-46.58 46.537-46.58h814.542c25.708 0 46.537 20.85 46.537 46.58 0 25.708-20.85 46.515-46.58 46.515zM211.942 29.073c17.495 163.64 123.88 289.655 203.38 383.818l4.248 5.033c14.641 17.32 14.641 42.68 0 60.023l-4.227 5.011c-79.478 94.184-185.907 220.199-203.401 383.861h600.095c-17.495-163.662-123.923-289.677-203.401-383.861l-4.205-5.011c-14.641-17.32-14.641-42.68 0-60.023l4.248-5.033c79.478-94.162 185.863-220.177 203.358-383.818h-600.095z" />
<glyph unicode="&#xe2ba;" glyph-name="shortcode_counter" d="M794.89 639.532l44.767 63.211c8.112 11.462 5.409 27.334-6.074 35.474l-67.477 47.789c-11.466 8.105-27.353 5.396-35.469-6.066l-45.863-64.749c-33.843 15.835-70.19 27.203-108.28 33.234v26.349c0 16.854 13.796 30.656 30.656 30.656h16.908c16.88 0 30.68 13.806 30.68 30.654v93.241c0 16.871-13.8 30.673-30.68 30.673h-224.14c-16.852 0-30.646-13.802-30.646-30.673v-93.241c0-16.848 13.793-30.654 30.646-30.654h16.936c16.865 0 30.663-13.802 30.663-30.656v-26.349c-40.831-6.492-79.664-19.035-115.536-36.718l-45.432 64.142c-8.125 11.464-24.009 14.175-35.474 6.051l-67.479-47.774c-11.477-8.123-14.182-24.012-6.063-35.471l45.812-64.723c-74.177-74.021-120.118-176.33-120.118-289.17 0-225.402 183.382-408.762 408.777-408.762 225.393 0 408.773 183.361 408.773 408.762 0 115.716-48.343 220.346-125.885 294.77zM512.002 34.097c-171.309 0-310.67 139.37-310.67 310.668 0 171.302 139.361 310.672 310.67 310.672 171.298 0 310.676-139.37 310.676-310.672 0-171.296-139.378-310.668-310.676-310.668zM768.12 346.813c-1.109 140.296-115.56 254.119-256.118 254.119-0.691 0-1.371-0.062-2.040-0.062v-254.057h-254.083c-0.015-0.669-0.054-1.347-0.054-2.050 0-140.571 113.823-255.005 254.136-256.118 0.671 0 1.349-0.036 2.040-0.036 141.244 0 256.167 114.893 256.167 256.154-0.002 0.704-0.049 1.381-0.049 2.050z" />
<glyph unicode="&#xe2bb;" glyph-name="shortcode_circle_progress" d="M511.978 958.28c-281.684 0-510.208-228.432-510.208-510.328 0-281.8 228.526-510.232 510.208-510.232 281.964 0 510.28 228.432 510.28 510.234-0.022 281.894-228.338 510.328-510.28 510.328zM511.978 32.746c-225.528 0-409.212 183.636-409.212 409.282 0 206.914 152.070 379.238 355.54 405.582v79.032l20.138-11.568 231.126-133.454-20.022-11.614-231.242-133.642v70.086c-124.46-25.034-216.468-136.076-216.468-264.448 0-148.932 121.206-270.092 270.14-270.092 148.954 0 270.116 121.16 270.116 270.092 0 44.33-10.984 88.354-32.058 127.412l-6.278 11.52 11.38 6.462 109.452 62.664 6.58-11.942c32.736-59.83 50.042-127.622 50.042-196.118 0-225.646-183.494-409.258-409.234-409.258z" />
<glyph unicode="&#xe32c;" glyph-name="shortcode_map" d="M666.169 597.513c0-85.116-68.942-154.167-154.169-154.167-85.161 0-154.103 69.051-154.103 154.167 0 85.182 68.942 154.19 154.103 154.19 85.206 0.021 154.167-69.008 154.167-154.19zM512 955.402c-197.623 0-357.803-160.178-357.803-357.891 0-197.602 160.178-357.867 357.803-357.867 197.732 0 357.803 160.265 357.803 357.867 0 197.711-160.071 357.891-357.803 357.891zM512 332.805c-146.19 0-264.73 118.495-264.73 264.708 0 146.277 118.538 264.772 264.73 264.772 146.256 0 264.772-118.495 264.772-264.772 0-146.19-118.519-264.708-264.772-264.708zM417.963 272.235l93.074-331.639 81.487 337.563z" />
<glyph unicode="&#xe36e;" glyph-name="shortcode_parse_page" d="M448 640h-256v-256h256v256zM192 256h640v64h-640v-64zM192 128h640v64h-640v-64zM512 576h320v64h-320v-64zM512 448h320v64h-320v-64zM960 960h-896c-35.28 0-64-28.72-64-64v-896c0-35.28 28.72-64 64-64h896c35.28 0 64 28.72 64 64v896c0 35.28-28.72 64-64 64zM800 896c17.688 0 32-14.312 32-32s-14.312-32-32-32-32 14.312-32 32 14.312 32 32 32zM224 896h448c17.688 0 32-14.312 32-32s-14.312-32-32-32h-448c-17.688 0-32 14.312-32 32s14.312 32 32 32zM96 896c17.688 0 32-14.312 32-32s-14.312-32-32-32-32 14.312-32 32 14.312 32 32 32zM960 64c0-35.28-28.72-64-64-64h-768c-35.28 0-64 28.72-64 64v640c0 35.28 28.72 64 64 64h768c35.28 0 64-28.72 64-64v-640zM928 832c-17.688 0-32 14.312-32 32s14.312 32 32 32 32-14.312 32-32-14.312-32-32-32z" />
<glyph unicode="&#xe407;" glyph-name="shortcode_layer_slider" d="M512.005 933.627l511.995-256.002-511.995-256.002-512.005 256.002 512.005 256.002zM512.005 328.531l-369.267 184.634-142.738-71.369 512.005-256.002 511.995 256.002-142.738 71.369-369.258-184.634zM512.005 105.11l-369.267 184.634-142.738-71.369 512.005-256.002 511.995 256.002-142.738 71.369-369.258-184.634z" />
<glyph unicode="&#xe408;" glyph-name="shortcode_accordions" d="M0 704v-512h1024v512h-1024zM960 256h-896v256h896v-256zM0 960h1024v-192h-1024v192zM0 128h1024v-192h-1024v192z" />
<glyph unicode="&#xe409;" glyph-name="shortcode_progress_bars" d="M960 832v-128h-576v128h576zM1024 896h-704v-256h704v256zM0 896h256v-256h-256v256zM960 512v-128h-576v128h576zM1024 576h-704v-256h704v256zM0 576h256v-256h-256v256zM960 192v-128h-576v128h576zM1024 256h-704v-256h704v256zM0 256h256v-256h-256v256z" />
<glyph unicode="&#xe40a;" glyph-name="shortcode_list" d="M0 896h192v-192h-192v192zM0 576h192v-192h-192v192zM0 256h192v-192h-192v192zM320 896h704v-192h-704v192zM320 576h704v-192h-704v192zM320 256h704v-192h-704v192z" />
<glyph unicode="&#xe413;" glyph-name="shortcode_items_grid" d="M0 183.172h247.172v-247.172h-247.172v247.172zM0 571.586h247.172v-247.172h-247.172v247.172zM0 960h247.172v-247.172h-247.172v247.172zM388.414 183.172h247.172v-247.172h-247.172v247.172zM388.414 571.586h247.172v-247.172h-247.172v247.172zM388.414 960h247.172v-247.172h-247.172v247.172zM776.828 183.172h247.172v-247.172h-247.172v247.172zM776.828 571.586h247.172v-247.172h-247.172v247.172zM776.828 960h247.172v-247.172h-247.172v247.172z" />
<glyph unicode="&#xe486;" glyph-name="shortcode_text_block" d="M0 704v-704h1024v896h-1024v-192zM896 832h64v-64h-64v64zM64 704h896v-640h-896v640zM192 576h128v-64h-128v64zM384 576h448v-64h-448v64zM192 448h128v-64h-128v64zM384 448h448v-64h-448v64zM192 320h128v-64h-128v64zM384 320h448v-64h-448v64z" />
<glyph unicode="&#xe487;" glyph-name="shortcode_posts" d="M0 960h1024v-275.69h-1024v275.69zM748.339 585.86h275.661v-275.719h-275.661v275.719zM374.17 585.86h275.661v-275.719h-275.661v275.719zM0 585.86h275.719v-275.719h-275.719v275.719zM748.339 211.69h275.661v-275.69h-275.661v275.69zM374.17 211.69h275.661v-275.69h-275.661v275.69zM0 211.69h275.719v-275.69h-275.719v275.69z" />
<glyph unicode="&#xe492;" glyph-name="shortcode_widget_area" d="M1024 960v-1024h-1024v1024h1024zM960 768h-256v-768h256v768zM64 0h576v768h-576v-768z" />
<glyph unicode="&#xe499;" glyph-name="shortcode_table" d="M0 896v-960h1024v960h-1024zM320 0h-256v128h256v-128zM320 192h-256v128h256v-128zM320 384h-256v128h256v-128zM320 576h-256v128h256v-128zM640 0h-256v128h256v-128zM640 192h-256v128h256v-128zM640 384h-256v128h256v-128zM640 576h-256v128h256v-128zM960 0h-256v128h256v-128zM960 192h-256v128h256v-128zM960 384h-256v128h256v-128zM960 576h-256v128h256v-128z" />
<glyph unicode="&#xe60a;" glyph-name="shortcode_icon_box" d="M832 960h-640c-106 0-192-86-192-192v-640c0-106 86-192 192-192h640c106 0 192 86 192 192v640c0 106-86 192-192 192zM824 518l-160-142 60-222c4-8 0-18-8-22-4-2-8-4-12-4s-10 2-14 4l-178 140-178-140c-8-6-18-6-26 0-8 4-10 14-8 22l60 222-160 142c-8 6-10 14-6 22 2 10 10 14 20 14h198l80 200c4 8 12 14 20 14s16-6 20-14l80-200h198c10 0 18-4 20-14 4-8 2-16-6-22z" />
<glyph unicode="&#xe852;" glyph-name="shortcode_simple_slider" horiz-adv-x="1408" d="M212.641 835.32c-11.401 0-20.641-9.261-20.641-20.651v-733.317c0-11.401 9.24-20.651 20.641-20.651h443.834v774.619h-443.834zM523.286 607.635c6.745-3.278 11.015-10.117 11.015-17.603v-284.085c0-7.486-4.27-14.314-11.015-17.592-6.734-3.268-14.752-2.412-20.651 2.213l-180.557 142.053c-4.709 3.696-7.465 9.376-7.465 15.389s2.756 11.662 7.465 15.379l180.568 142.032c3.518 2.767 7.789 4.187 12.090 4.187 2.913 0 5.847-0.658 8.551-1.973zM1195.349 60.701c11.401 0 20.651 9.25 20.651 20.651v733.317c0 11.401-9.25 20.651-20.651 20.651h-443.834v-774.619h443.834zM884.703 288.365c-6.745 3.278-11.025 10.117-11.025 17.603v284.085c0 7.486 4.27 14.324 11.025 17.592 6.734 3.268 14.742 2.412 20.651-2.213l180.557-142.053c4.709-3.696 7.465-9.376 7.465-15.379s-2.756-11.662-7.465-15.389l-180.578-142.022c-3.518-2.767-7.789-4.176-12.090-4.176-2.913-0.021-5.857 0.637-8.54 1.952zM751.515-34.245v94.946h-95.050v-94.946c0-8.54 6.932-15.473 15.473-15.473h64.084c8.572-0.010 15.494 6.922 15.494 15.473zM751.515 930.255c0 8.54-6.922 15.473-15.462 15.473h-64.104c-8.54 0-15.473-6.932-15.473-15.473v-94.956h95.050l-0.010 94.956z" />
<glyph unicode="&#xe889;" glyph-name="shortcode_slider" horiz-adv-x="1408" d="M320 64h768v768h-768v-768zM448 704h512v-512h-512v512zM255 320l-127 128 127 128-64 64-191-192 191-192zM1215 640l-64-64 128-128-128-128 64-64 193 192z" />
<glyph unicode="&#xe900;" glyph-name="shortcode_special_heading" d="M896 960h-768c-17.664 0-32-14.336-32-32v-192c0-17.664 14.336-32 32-32h32c17.664 0 32 14.336 32 32l64 96h192v-768l-160-64c-17.664 0-32-14.304-32-32s14.336-32 32-32h448c17.696 0 32 14.304 32 32s-14.304 32-32 32l-160 64v768h192l64-96c0-17.664 14.304-32 32-32h32c17.696 0 32 14.336 32 32v192c0 17.664-14.304 32-32 32z" />
<glyph unicode="&#xe901;" glyph-name="shortcode_breadcrumbs" d="M738.666 277.334v114.666h285.334v-114.666h-285.334zM341.334 277.334v114.666h285.334v-114.666h-285.334zM-56 277.334v114.666h282.666v-114.666h-282.666zM-56 618.666h1080v-114.666h-1080v114.666z" />
<glyph unicode="&#xef41;" glyph-name="shortcode_menu_anchor" d="M1025.001 335.39l-192.188 192.188-192.188-192.188h128.125c0-119.116-82.080-218.213-192.188-247.241v649.634c38.037 22.022 64.063 63.062 64.063 110.108 0 71.069-57.056 128.125-128.125 128.125s-128.125-57.056-128.125-128.125c0-47.046 26.025-88.086 64.063-110.108v-649.634c-110.108 29.028-192.188 128.125-192.188 247.241h128.125l-192.188 192.188-192.188-192.188h128.125c0-212.207 172.168-384.375 384.375-384.375s384.375 172.168 384.375 384.375h128.125zM512.5 911.953c35.034 0 64.063-29.028 64.063-64.063s-29.028-64.063-64.063-64.063-64.063 29.028-64.063 64.063 29.028 64.063 64.063 64.063z" />
<glyph unicode="&#xef75;" glyph-name="shortcode_search_form" d="M386.377 207.265c-212.207 0-384.375 172.168-384.375 384.375s172.168 384.375 384.375 384.375 384.375-172.168 384.375-384.375c0-83.081-27.026-159.155-72.070-222.217l304.297-307.3c24.023-24.023 24.023-63.062 0-87.085s-63.062-24.023-87.085 0l-307.3 304.297c-63.062-45.044-139.136-72.070-222.217-72.070zM386.377 847.891c-141.138 0-256.25-115.112-256.25-256.25s115.112-256.25 256.25-256.25 256.25 115.112 256.25 256.25-115.112 256.25-256.25 256.25z" />
<glyph unicode="&#xf144;" glyph-name="shortcode_code_snippet" horiz-adv-x="897" d="M70.4 761.6c12.8-83.2 25.6-102.4 25.6-185.6 0-51.2-96-96-96-96v-64c0 0 96-44.8 96-96 0-83.2-12.8-102.4-25.6-185.6-19.2-134.4 51.2-198.4 115.2-198.4s134.4 0 134.4 0v128c0 0-115.2-12.8-115.2 64 0 57.6 12.8 57.6 25.6 185.6 6.4 57.6-32 102.4-70.4 134.4 38.4 32 76.8 70.4 70.4 128-19.2 128-25.6 128-25.6 185.6 0 76.8 115.2 70.4 115.2 70.4v128c0 0-64 0-134.4 0s-134.4-64-115.2-198.4zM825.6 761.6c-12.8-83.2-25.6-102.4-25.6-185.6 0-51.2 96-96 96-96v-64c0 0-96-44.8-96-96 0-83.2 12.8-102.4 25.6-185.6 19.2-134.4-51.2-198.4-115.2-198.4s-134.4 0-134.4 0v128c0 0 115.2-12.8 115.2 64 0 57.6-12.8 57.6-25.6 185.6-6.4 57.6 32 102.4 70.4 134.4-38.4 32-76.8 70.4-70.4 128 12.8 128 25.6 128 25.6 185.6 0 76.8-115.2 70.4-115.2 70.4v128c0 0 64 0 134.4 0s134.4-64 115.2-198.4z" />
<glyph unicode="&#xf146;" glyph-name="shortcode_divider" horiz-adv-x="897" d="M912.102 914.756h-918.577c-10.963 0-19.862-8.898-19.862-19.862v-261.234h958.302v261.234c0 10.963-8.878 19.862-19.862 19.862zM-26.336 262.342v-261.234c0-10.963 8.898-19.862 19.862-19.862h918.577c10.963 0 19.862 8.898 19.862 19.862v261.234h-958.302zM-6.474 400.91h179.929c10.963 0 19.862 8.898 19.862 19.862v64.87c0 10.963-8.898 19.862-19.862 19.862h-179.929c-10.963 0-19.862-8.898-19.862-19.862v-64.87c0-10.984 8.889-19.862 19.862-19.862zM912.102 505.501h-159.96c-10.963 0-19.862-8.898-19.862-19.862v-64.87c0-10.963 8.898-19.862 19.862-19.862h159.96c10.963 0 19.862 8.898 19.862 19.862v64.87c0 10.974-8.878 19.862-19.862 19.862zM552.751 400.91c10.963 0 19.862 8.898 19.862 19.862v64.87c0 10.963-8.898 19.862-19.862 19.862h-179.92c-10.963 0-19.862-8.898-19.862-19.862v-64.87c0-10.963 8.898-19.862 19.862-19.862h179.92z" />
</font>
</defs>
</svg>
